<svg width="115" height="18" viewBox="0 0 115 18" fill="none" xmlns="http://www.w3.org/2000/svg">
<path d="M101.651 5.51284H99.8471V17.6989H101.651V5.51284ZM50.0264 5.51284H48.2229V17.6989H50.0264V5.51284ZM14.469 5.23518H16.5233C15.9743 3.44672 13.6012 0.0229781 8.69458 0.0229781C3.78796 0.0229781 0 3.89096 0 9.01126C0 14.2005 3.74269 17.9995 8.69458 17.9995C13.5993 17.9995 15.9743 14.5011 16.478 12.8295H14.4916C13.9445 13.919 12.209 16.1192 8.69458 16.1192C4.92171 16.1192 2.05433 13.0841 2.05433 9.03424C2.05433 4.93455 4.92925 1.89953 8.69458 1.89953C12.1411 1.89953 13.8521 4.09968 14.469 5.23518ZM28.0022 11.6059C28.0022 14.2235 26.1762 16.2398 23.6898 16.2398C21.2035 16.2398 19.351 14.2235 19.351 11.6059C19.351 8.98828 21.1771 6.97195 23.6898 6.97195C26.2026 6.97195 28.0022 8.98828 28.0022 11.6059ZM27.9796 17.6989H29.783V5.51284H27.9796V7.81065C27.6155 7.00067 26.3365 5.23901 23.62 5.23901C20.1981 5.23901 17.5042 7.97341 17.5042 11.6097C17.5042 15.246 20.1981 17.9804 23.62 17.9804C26.3365 17.9804 27.5929 16.2436 27.9796 15.4088V17.6989ZM31.9732 17.6989H33.7766V0H31.9732V17.6989ZM42.0845 17.6989L46.7402 5.51284H44.7538L40.9356 15.8224L37.1307 5.51284H35.1462L39.8038 17.6989H42.0845ZM48.2003 3.38162H50.049V1.25039H48.2003V3.38162ZM60.8884 17.6989H62.7145V10.8189C62.7145 7.73789 61.1393 5.23518 57.7853 5.23518C55.2971 5.23518 54.2482 6.88004 54.0124 7.55215V5.51284H52.2165V17.6989H54.0199V10.9567C54.0199 8.6168 55.3216 6.97195 57.4891 6.97195C59.6566 6.97195 60.8847 8.57084 60.8847 10.8648L60.8884 17.6989ZM81.4298 17.6989L74.5594 8.1783L81.4298 0.327438H79.0548L71.0224 9.59528V0.323609H69.0435V17.6989H71.0299V12.209L73.1937 9.72932L79.151 17.6989H81.4298ZM82.4561 17.6989H84.2595V0H82.4561V17.6989ZM87.9078 10.4474C88.0765 9.46037 88.5834 8.56561 89.339 7.92124C90.0947 7.27687 91.0504 6.92436 92.0373 6.92599C94.433 6.92599 95.7799 8.6168 96.1459 10.4474H87.9078ZM87.7965 12.0635H98.0946C98.187 8.07873 95.5611 5.22944 92.0467 5.22944C88.6002 5.22944 85.9761 8.00979 85.9761 11.6001C85.9761 15.1905 88.5775 17.9708 92.092 17.9708C95.6988 17.9708 97.4796 15.4451 97.9399 13.7773H96.1384C95.6592 14.7979 94.4953 16.2666 92.0976 16.2666C89.7 16.2666 87.9475 14.413 87.8079 12.0731L87.7965 12.0635ZM99.8358 3.38544H101.679V1.25039H99.8301L99.8358 3.38544ZM114.35 17.7027V10.8189C114.35 7.73789 112.775 5.23518 109.421 5.23518C106.933 5.23518 105.884 6.88004 105.648 7.55215V5.51284H103.844V17.6989H105.64V10.9567C105.64 8.6168 106.94 6.97195 109.109 6.97195C111.279 6.97195 112.505 8.57084 112.505 10.8648V17.6989L114.35 17.7027Z" fill="#4E2526"/>
</svg>
